<svg xmlns="http://www.w3.org/2000/svg" viewBox="0 0 48 48" width="48" height="48">
  <!-- Cannon Lv3: 標準型 - 紫系 -->
  <!-- メイン砲身（太い） -->
  <rect x="20" y="2" width="8" height="18" rx="2" fill="#3a1144" stroke="#cc44ff" stroke-width="1.2"/>
  <rect x="18" y="2" width="12" height="4" rx="2" fill="#cc44ff" opacity="0.8"/>
  <!-- 船体（がっしり） -->
  <path d="M10 18 L38 18 L42 30 L38 44 L10 44 L6 30 Z" fill="#2a1133" stroke="#cc44ff" stroke-width="1.5"/>
  <!-- 重装甲プレート -->
  <path d="M6 30 L2 28 L2 36 L6 38 Z" fill="#3a1844" stroke="#cc44ff" stroke-width="1"/>
  <path d="M42 30 L46 28 L46 36 L42 38 Z" fill="#3a1844" stroke="#cc44ff" stroke-width="1"/>
  <!-- パワーコア -->
  <circle cx="24" cy="32" r="7" fill="#1a0822" stroke="#cc44ff" stroke-width="1.5"/>
  <circle cx="24" cy="32" r="4" fill="#cc44ff" opacity="0.4"/>
  <circle cx="24" cy="32" r="2" fill="#ee88ff" opacity="0.7"/>
  <!-- チャージインジケーター -->
  <rect x="14" y="22" width="20" height="2" rx="1" fill="#cc44ff" opacity="0.3"/>
  <!-- エンジン -->
  <rect x="14" y="44" width="6" height="3" rx="1" fill="#cc44ff" opacity="0.5"/>
  <rect x="28" y="44" width="6" height="3" rx="1" fill="#cc44ff" opacity="0.5"/>
</svg>
