<svg xmlns="http://www.w3.org/2000/svg" viewBox="0 0 48 48" width="48" height="48">
  <!-- Distributor Lv3: 標準型 - 黄色系 -->
  <!-- 船体（コンパクト） -->
  <path d="M18 10 L30 10 L36 20 L36 36 L30 44 L18 44 L12 36 L12 20 Z" fill="#332a00" stroke="#ffaa00" stroke-width="1.5"/>
  <!-- 入力ポート（上） -->
  <rect x="20" y="6" width="8" height="6" rx="2" fill="#443500" stroke="#ffaa00" stroke-width="1"/>
  <rect x="22" y="4" width="4" height="3" rx="1" fill="#ffaa00" opacity="0.7"/>
  <!-- 出力ポート（3方向） -->
  <path d="M12 24 L4 20 L4 28 Z" fill="#443500" stroke="#ffaa00" stroke-width="1"/>
  <path d="M36 24 L44 20 L44 28 Z" fill="#443500" stroke="#ffaa00" stroke-width="1"/>
  <path d="M24 44 L20 48 L28 48 Z" fill="#443500" stroke="#ffaa00" stroke-width="1"/>
  <!-- 中央分配コア -->
  <circle cx="24" cy="26" r="6" fill="#221800" stroke="#ffaa00" stroke-width="1.5"/>
  <!-- 分配ライン -->
  <line x1="24" y1="20" x2="24" y2="16" stroke="#ffaa00" stroke-width="1.5" opacity="0.8"/>
  <line x1="18" y1="26" x2="12" y2="26" stroke="#ffaa00" stroke-width="1.5" opacity="0.8"/>
  <line x1="30" y1="26" x2="36" y2="26" stroke="#ffaa00" stroke-width="1.5" opacity="0.8"/>
  <line x1="24" y1="32" x2="24" y2="38" stroke="#ffaa00" stroke-width="1.5" opacity="0.8"/>
  <!-- 中央ドット -->
  <circle cx="24" cy="26" r="2.5" fill="#ffaa00" opacity="0.6"/>
  <circle cx="24" cy="26" r="1" fill="#ffddaa"/>
</svg>
