<svg xmlns="http://www.w3.org/2000/svg" viewBox="0 0 48 48" width="48" height="48">
  <!-- Generator Lv4: 装甲追加+ダブルコア -->
  <!-- 船体ベース（Lv3より厚い） -->
  <path d="M24 4 L36 16 L36 36 L30 44 L18 44 L12 36 L12 16 Z" fill="#0a3322" stroke="#00ff88" stroke-width="2"/>
  <!-- 左右ウィング（大きめ） -->
  <path d="M12 16 L4 22 L4 32 L12 36 Z" fill="#0d4030" stroke="#00ff88" stroke-width="1"/>
  <path d="M36 16 L44 22 L44 32 L36 36 Z" fill="#0d4030" stroke="#00ff88" stroke-width="1"/>
  <!-- 上下装甲プレート -->
  <path d="M17 12 L24 6 L31 12 L31 15 L17 15 Z" fill="#0d4030" stroke="#00ff88" stroke-width="0.8" opacity="0.7"/>
  <path d="M17 38 L24 42 L31 38 L31 36 L17 36 Z" fill="#0d4030" stroke="#00ff88" stroke-width="0.8" opacity="0.5"/>
  <!-- ダブルコア -->
  <circle cx="24" cy="24" r="8" fill="#003318" stroke="#00ff88" stroke-width="1.8"/>
  <circle cx="24" cy="24" r="5.5" fill="none" stroke="#00ff88" stroke-width="0.8" opacity="0.5"/>
  <circle cx="24" cy="24" r="4" fill="#00ff88" opacity="0.6"/>
  <circle cx="24" cy="24" r="2" fill="#aaffcc" opacity="0.9"/>
  <!-- エネルギーライン（4方向、太め） -->
  <line x1="24" y1="8" x2="24" y2="16" stroke="#00ff88" stroke-width="1.5" opacity="0.8"/>
  <line x1="24" y1="32" x2="24" y2="40" stroke="#00ff88" stroke-width="1.5" opacity="0.8"/>
  <line x1="14" y1="24" x2="12" y2="24" stroke="#00ff88" stroke-width="1.5" opacity="0.8"/>
  <line x1="34" y1="24" x2="36" y2="24" stroke="#00ff88" stroke-width="1.5" opacity="0.8"/>
  <!-- 上部アンテナ（大型） -->
  <rect x="21" y="2" width="6" height="4" rx="1.5" fill="#00cc66"/>
  <circle cx="24" cy="2" r="1.5" fill="#00ff88" opacity="0.7"/>
</svg>
