<svg xmlns="http://www.w3.org/2000/svg" viewBox="0 0 48 48" width="48" height="48">
  <!-- Generator Lv5: 究極コア型 - トリプルリング+フルライン -->
  <!-- 外殻リング -->
  <circle cx="24" cy="24" r="22" fill="none" stroke="#00ff88" stroke-width="0.8" opacity="0.3"/>
  <!-- 船体ベース（最大強化） -->
  <path d="M24 3 L38 16 L38 36 L31 45 L17 45 L10 36 L10 16 Z" fill="#0a3322" stroke="#00ff88" stroke-width="2.5"/>
  <!-- 左右ウィング（大型化） -->
  <path d="M10 14 L0 20 L0 34 L10 38 Z" fill="#0d4030" stroke="#00ff88" stroke-width="1.2"/>
  <path d="M38 14 L48 20 L48 34 L38 38 Z" fill="#0d4030" stroke="#00ff88" stroke-width="1.2"/>
  <!-- 上下装甲 -->
  <path d="M15 10 L24 5 L33 10 L33 15 L15 15 Z" fill="#0d4030" stroke="#00ff88" stroke-width="1" opacity="0.8"/>
  <path d="M15 38 L24 43 L33 38 L33 34 L15 34 Z" fill="#0d4030" stroke="#00ff88" stroke-width="1" opacity="0.6"/>
  <!-- トリプルコア -->
  <circle cx="24" cy="24" r="10" fill="#003318" stroke="#00ff88" stroke-width="2"/>
  <circle cx="24" cy="24" r="7" fill="#006633" stroke="#00ff88" stroke-width="1" opacity="0.8"/>
  <circle cx="24" cy="24" r="5" fill="#00ff88" opacity="0.6"/>
  <circle cx="24" cy="24" r="3" fill="#88ffcc" opacity="0.9"/>
  <circle cx="24" cy="24" r="1.5" fill="#ffffff"/>
  <!-- 8方向エネルギーライン -->
  <line x1="24" y1="6" x2="24" y2="14" stroke="#00ff88" stroke-width="2" opacity="0.9"/>
  <line x1="24" y1="34" x2="24" y2="42" stroke="#00ff88" stroke-width="2" opacity="0.9"/>
  <line x1="12" y1="24" x2="10" y2="24" stroke="#00ff88" stroke-width="2" opacity="0.9"/>
  <line x1="36" y1="24" x2="38" y2="24" stroke="#00ff88" stroke-width="2" opacity="0.9"/>
  <line x1="16" y1="16" x2="12" y2="12" stroke="#00ff88" stroke-width="1.5" opacity="0.7"/>
  <line x1="32" y1="16" x2="36" y2="12" stroke="#00ff88" stroke-width="1.5" opacity="0.7"/>
  <line x1="16" y1="32" x2="12" y2="36" stroke="#00ff88" stroke-width="1.5" opacity="0.7"/>
  <line x1="32" y1="32" x2="36" y2="36" stroke="#00ff88" stroke-width="1.5" opacity="0.7"/>
  <!-- 上部ダブルアンテナ -->
  <rect x="20" y="0" width="8" height="5" rx="1.5" fill="#00cc66"/>
  <circle cx="22" cy="1" r="1.5" fill="#00ff88"/>
  <circle cx="26" cy="1" r="1.5" fill="#00ff88"/>
</svg>
