<svg xmlns="http://www.w3.org/2000/svg" viewBox="0 0 48 48" width="48" height="48">
  <!-- Sniper Lv3: 標準型 - 赤系 -->
  <!-- メインバレル（長い） -->
  <rect x="22" y="2" width="4" height="20" rx="1" fill="#661122" stroke="#ff4466" stroke-width="1"/>
  <rect x="21" y="2" width="6" height="3" rx="1" fill="#ff4466"/>
  <!-- 船体 -->
  <path d="M18 20 L30 20 L34 30 L32 42 L16 42 L14 30 Z" fill="#331122" stroke="#ff4466" stroke-width="1.5"/>
  <!-- 左右サイドアーマー -->
  <path d="M14 26 L8 30 L8 38 L14 40 Z" fill="#441528" stroke="#ff4466" stroke-width="1"/>
  <path d="M34 26 L40 30 L40 38 L34 40 Z" fill="#441528" stroke="#ff4466" stroke-width="1"/>
  <!-- 照準スコープ -->
  <circle cx="24" cy="30" r="5" fill="#220a10" stroke="#ff4466" stroke-width="1.5"/>
  <circle cx="24" cy="30" r="2.5" fill="#ff4466" opacity="0.5"/>
  <line x1="24" y1="25" x2="24" y2="35" stroke="#ff4466" stroke-width="0.5" opacity="0.8"/>
  <line x1="19" y1="30" x2="29" y2="30" stroke="#ff4466" stroke-width="0.5" opacity="0.8"/>
  <!-- エンジン排気 -->
  <rect x="19" y="42" width="4" height="3" rx="1" fill="#ff4466" opacity="0.6"/>
  <rect x="25" y="42" width="4" height="3" rx="1" fill="#ff4466" opacity="0.6"/>
</svg>
