<svg xmlns="http://www.w3.org/2000/svg" viewBox="0 0 48 48" width="48" height="48">
  <!-- Fast: 高速偵察機 - 緑系（シャープな三角形） -->
  <!-- メイン船体（鋭い矢印型） -->
  <path d="M24 2 L32 22 L28 24 L30 42 L24 38 L18 42 L20 24 L16 22 Z" fill="#33cc33" stroke="#66ff66" stroke-width="1.5"/>
  <!-- 中央ライン -->
  <path d="M24 6 L24 36" stroke="#66ff66" stroke-width="1" opacity="0.5"/>
  <!-- コックピット -->
  <ellipse cx="24" cy="12" rx="3" ry="4" fill="#229922" stroke="#66ff66" stroke-width="1"/>
  <ellipse cx="24" cy="11" rx="1.5" ry="2.5" fill="#66ff66" opacity="0.4"/>
  <!-- 左右スタビライザー -->
  <path d="M16 22 L6 30 L10 32 L18 26 Z" fill="#28aa28" stroke="#66ff66" stroke-width="1"/>
  <path d="M32 22 L42 30 L38 32 L30 26 Z" fill="#28aa28" stroke="#66ff66" stroke-width="1"/>
  <!-- エンジン（3基 - 高速） -->
  <rect x="17" y="42" width="3" height="4" rx="1" fill="#66ff66" opacity="0.7"/>
  <rect x="23" y="40" width="3" height="6" rx="1" fill="#66ff66" opacity="0.8"/>
  <rect x="29" y="42" width="3" height="4" rx="1" fill="#66ff66" opacity="0.7"/>
</svg>
