<svg xmlns="http://www.w3.org/2000/svg" viewBox="0 0 48 48" width="48" height="48">
  <!-- Normal: 汎用戦闘機 - 紫系 -->
  <!-- メイン船体 -->
  <path d="M24 4 L32 16 L34 32 L30 42 L18 42 L14 32 L16 16 Z" fill="#9933cc" stroke="#cc66ff" stroke-width="1.5"/>
  <!-- コックピット -->
  <ellipse cx="24" cy="14" rx="4" ry="5" fill="#6622aa" stroke="#cc66ff" stroke-width="1"/>
  <ellipse cx="24" cy="13" rx="2" ry="3" fill="#cc66ff" opacity="0.4"/>
  <!-- 左右ウィング -->
  <path d="M16 20 L6 28 L8 34 L14 30 Z" fill="#7728aa" stroke="#cc66ff" stroke-width="1"/>
  <path d="M32 20 L42 28 L40 34 L34 30 Z" fill="#7728aa" stroke="#cc66ff" stroke-width="1"/>
  <!-- ウィング先端砲 -->
  <circle cx="6" cy="28" r="2" fill="#cc66ff" opacity="0.7"/>
  <circle cx="42" cy="28" r="2" fill="#cc66ff" opacity="0.7"/>
  <!-- エンジン -->
  <rect x="19" y="42" width="4" height="4" rx="1" fill="#cc66ff" opacity="0.6"/>
  <rect x="25" y="42" width="4" height="4" rx="1" fill="#cc66ff" opacity="0.6"/>
  <!-- 船体ライン -->
  <line x1="24" y1="20" x2="24" y2="38" stroke="#cc66ff" stroke-width="0.8" opacity="0.4"/>
</svg>
